HIERARCHY
ROOT Hips
{
	OFFSET 0.00000 0.00000 0.00000
	CHANNELS 6 Xposition Yposition Zposition Zrotation Yrotation Xrotation 
	JOINT LHipJoint
	{
		OFFSET 0 0 0
		CHANNELS 3 Zrotation Yrotation Xrotation
		JOINT LeftUpLeg
		{
			OFFSET 1.34019 -1.87553 0.90315
			CHANNELS 3 Zrotation Yrotation Xrotation
			JOINT LeftLeg
			{
				OFFSET 2.55316 -7.01474 0.00000
				CHANNELS 3 Zrotation Yrotation Xrotation
				JOINT LeftFoot
				{
					OFFSET 2.64657 -7.27139 0.00000
					CHANNELS 3 Zrotation Yrotation Xrotation
					JOINT LeftToeBase
					{
						OFFSET 0.24207 -0.66507 2.14489
						CHANNELS 3 Zrotation Yrotation Xrotation
						End Site
						{
							OFFSET 0.00000 -0.00000 1.12451
						}
					}
				}
			}
		}
	}
	JOINT RHipJoint
	{
		OFFSET 0 0 0
		CHANNELS 3 Zrotation Yrotation Xrotation
		JOINT RightUpLeg
		{
			OFFSET -1.28320 -1.87553 0.90315
			CHANNELS 3 Zrotation Yrotation Xrotation
			JOINT RightLeg
			{
				OFFSET -2.60484 -7.15674 0.00000
				CHANNELS 3 Zrotation Yrotation Xrotation
				JOINT RightFoot
				{
					OFFSET -2.60296 -7.15159 0.00000
					CHANNELS 3 Zrotation Yrotation Xrotation
					JOINT RightToeBase
					{
						OFFSET -0.31082 -0.85398 2.28998
						CHANNELS 3 Zrotation Yrotation Xrotation
						End Site
						{
							OFFSET -0.00000 -0.00000 1.21611
						}
					}
				}
			}
		}
	}
	JOINT LowerBack
	{
		OFFSET 0 0 0
		CHANNELS 3 Zrotation Yrotation Xrotation
		JOINT Spine
		{
			OFFSET -0.00160 2.05581 -0.15156
			CHANNELS 3 Zrotation Yrotation Xrotation
			JOINT Spine1
			{
				OFFSET 0.04594 2.06326 -0.01617
				CHANNELS 3 Zrotation Yrotation Xrotation
				JOINT Neck
				{
					OFFSET 0 0 0
					CHANNELS 3 Zrotation Yrotation Xrotation
					JOINT Neck1
					{
						OFFSET 0.03753 1.73883 0.26751
						CHANNELS 3 Zrotation Yrotation Xrotation
						JOINT Head
						{
							OFFSET -0.09795 1.76129 -0.31794
							CHANNELS 3 Zrotation Yrotation Xrotation
							End Site
							{
								OFFSET -0.03611 1.79987 -0.13846
							}
						}
					}
				}
				JOINT LeftShoulder
				{
					OFFSET 0 0 0
					CHANNELS 3 Zrotation Yrotation Xrotation
					JOINT LeftArm
					{
						OFFSET 3.30667 1.29205 -0.22445
						CHANNELS 3 Zrotation Yrotation Xrotation
						JOINT LeftForeArm
						{
							OFFSET 4.92785 -0.00000 -0.00000
							CHANNELS 3 Zrotation Yrotation Xrotation
							JOINT LeftHand
							{
								OFFSET 3.44052 -0.00000 0.00000
								CHANNELS 3 Zrotation Yrotation Xrotation
								JOINT LeftFingerBase
								{
									OFFSET 0 0 0
									CHANNELS 3 Zrotation Yrotation Xrotation
									JOINT LeftHandIndex1
									{
										OFFSET 0.65433 -0.00000 0.00000
										CHANNELS 3 Zrotation Yrotation Xrotation
										End Site
										{
											OFFSET 0.52753 -0.00000 0.00000
										}
									}
								}
								JOINT LThumb
								{
									OFFSET 0 0 0
									CHANNELS 3 Zrotation Yrotation Xrotation
									End Site
									{
										OFFSET 0.53559 -0.00000 0.53559
									}
								}
							}
						}
					}
				}
				JOINT RightShoulder
				{
					OFFSET 0 0 0
					CHANNELS 3 Zrotation Yrotation Xrotation
					JOINT RightArm
					{
						OFFSET -3.20032 1.49783 -0.27688
						CHANNELS 3 Zrotation Yrotation Xrotation
						JOINT RightForeArm
						{
							OFFSET -5.09181 -0.00000 -0.00000
							CHANNELS 3 Zrotation Yrotation Xrotation
							JOINT RightHand
							{
								OFFSET -3.49865 -0.00000 -0.00000
								CHANNELS 3 Zrotation Yrotation Xrotation
								JOINT RightFingerBase
								{
									OFFSET 0 0 0
									CHANNELS 3 Zrotation Yrotation Xrotation
									JOINT RightHandIndex1
									{
										OFFSET -0.66641 -0.00000 0.00000
										CHANNELS 3 Zrotation Yrotation Xrotation
										End Site
										{
											OFFSET -0.53728 -0.00000 0.00000
										}
									}
								}
								JOINT RThumb
								{
									OFFSET 0 0 0
									CHANNELS 3 Zrotation Yrotation Xrotation
									End Site
									{
										OFFSET -0.54548 -0.00000 0.54548
									}
								}
							}
						}
					}
				}
			}
		}
	}
}
MOTION
Frames: 8
Frame Time: .0083333
-0.3744 17.6308 -12.9277 8.7592 5.4800 10.0373 0.0000 0.0000 0.0000 -31.4311 5.2310 7.1181 0.1207 2.2397 6.1685 -0.0911 10.3087 -13.1299 0.9112 -6.0827 -17.0246 0.0000 0.0000 0.0000 7.6752 3.8460 -47.4427 -3.2306 -11.0594 32.4803 0.3408 -13.1506 -13.5834 -0.1741 2.6881 -7.4116 -10.8970 -0.9018 9.9757 0.0733 -2.5083 -0.7703 6.5901 -0.8756 -5.9830 4.2782 0.0640 -19.1699 -4.8201 -0.1253 16.8785 -2.3480 -0.2939 8.3985 0.0000 -0.0000 0.0000 -85.0474 -13.5214 35.1953 23.4995 -34.6305 -7.4202 -0.0000 0.0000 -16.1022 17.9453 -3.6144 -1.1696 -7.1250 0.0000 -0.0000 -6.5768 26.1718 3.0204 0.0000 -0.0000 0.0000 84.3824 -15.3745 -2.1285 -8.2408 13.9424 -1.0094 0.0000 0.0000 8.6300 -17.8877 -4.1463 1.3368 7.1250 -0.0000 -0.0000 7.2020 -34.2675 1.9094
-0.3763 17.6285 -12.6626 8.6418 5.8430 10.0944 0.0000 0.0000 0.0000 -30.9660 5.8794 9.6488 0.0278 1.0762 2.9586 -0.2035 10.4680 -11.0672 1.0244 -6.4385 -18.0622 0.0000 0.0000 0.0000 7.7884 4.1417 -47.2837 -2.8602 -10.4652 30.4967 0.3214 -12.9098 -13.4675 -0.2621 3.2939 -9.0980 -10.8253 -1.1025 9.8152 0.1324 -2.7431 -0.7763 6.6368 -1.0001 -5.8525 4.2664 0.1047 -19.2685 -4.7809 -0.0772 16.9133 -2.3281 -0.2687 8.4301 0.0000 -0.0000 0.0000 -84.7505 -14.1086 35.3544 24.5854 -35.7772 -8.0462 -0.0000 0.0000 -16.3028 18.2257 -3.8780 -1.2758 -7.1250 0.0000 -0.0000 -6.3539 25.8907 2.9588 0.0000 -0.0000 0.0000 84.5755 -15.8967 -3.9266 -7.8869 13.3693 -0.9258 0.0000 0.0000 10.6025 -17.9062 -3.6789 1.1877 7.1250 -0.0000 -0.0000 7.1371 -33.7812 1.9767
-0.3791 17.6264 -12.3939 8.5034 6.2394 10.1094 0.0000 0.0000 0.0000 -30.4129 6.4607 12.1070 0.0000 0.0000 0.0000 -0.2841 10.5345 -8.9472 1.1573 -6.8300 -19.2127 0.0000 0.0000 0.0000 7.8294 4.5216 -46.9674 -2.5793 -9.9807 28.9141 0.2743 -12.5735 -13.7040 -0.3522 3.8132 -10.5517 -10.7330 -1.3089 9.6843 0.2116 -2.9855 -0.7754 6.6941 -1.1286 -5.7300 4.2977 0.1580 -19.3304 -4.8225 -0.0064 16.9225 -2.3393 -0.2384 8.4477 0.0000 -0.0000 0.0000 -84.4718 -14.6185 35.4660 25.6796 -36.8906 -8.6946 -0.0000 0.0000 -16.4714 18.5505 -4.1403 -1.3879 -7.1250 0.0000 -0.0000 -6.0991 25.6087 2.8792 0.0000 -0.0000 0.0000 84.7431 -16.4055 -5.6417 -7.5951 12.8943 -0.8595 0.0000 0.0000 12.2600 -17.8347 -3.4767 1.1177 7.1250 -0.0000 -0.0000 7.1742 -33.5680 2.0245
-0.3829 17.6246 -12.1210 8.3432 6.6644 10.0836 0.0000 0.0000 0.0000 -29.8799 6.4942 13.0930 0.0000 -0.0000 -0.0000 -0.3000 10.4790 -8.1982 1.3147 -7.2627 -20.4959 0.0000 0.0000 0.0000 7.8416 4.9457 -46.5203 -2.3824 -9.6209 27.7576 0.2055 -12.1628 -14.1977 -0.4312 4.2139 -11.6793 -10.6151 -1.5126 9.5808 0.3059 -3.2235 -0.7641 6.7522 -1.2557 -5.6130 4.3300 0.2124 -19.3822 -4.9063 0.0747 16.9300 -2.3635 -0.2076 8.4635 -0.0000 -0.0000 0.0000 -84.2116 -15.0845 35.5632 26.7527 -37.9424 -9.3467 -0.0000 0.0000 -16.6440 18.9333 -4.4702 -1.5315 -7.1250 0.0000 -0.0000 -5.8004 25.2526 2.7851 -0.0000 -0.0000 0.0000 84.9041 -16.8855 -7.3829 -7.3359 12.4707 -0.8026 0.0000 0.0000 13.7761 -17.7306 -3.3693 1.0765 7.1250 -0.0000 -0.0000 7.2478 -33.4526 2.0659
-0.3877 17.6231 -11.8426 8.1593 7.0801 9.9975 0.0000 0.0000 0.0000 -29.2777 6.5563 14.1293 0.0000 0.0000 0.0000 -0.3086 10.3125 -7.2499 1.4929 -7.7187 -21.8628 0.0000 0.0000 0.0000 7.8937 5.3585 -45.9475 -2.2614 -9.3906 27.0249 0.1236 -11.6606 -14.7383 -0.4935 4.5040 -12.4990 -10.4736 -1.6954 9.5081 0.4112 -3.4339 -0.7397 6.8057 -1.3697 -5.5055 4.3771 0.2671 -19.4631 -5.0470 0.1635 16.9571 -2.4092 -0.1786 8.4916 -0.0000 0.0000 0.0000 -83.9777 -15.4975 35.6580 27.7893 -38.9216 -9.9911 -0.0000 0.0000 -16.7910 19.3394 -4.8878 -1.7129 -7.1250 0.0000 -0.0000 -5.4847 24.8011 2.6899 -0.0000 0.0000 0.0000 85.0626 -17.3489 -9.1805 -7.0940 12.0739 -0.7512 0.0000 0.0000 15.2812 -17.6668 -3.2596 1.0375 7.1250 -0.0000 -0.0000 7.2881 -33.3363 2.0982
-0.3933 17.6221 -11.5583 7.9318 7.4684 9.8523 0.0000 0.0000 0.0000 -28.5896 6.6591 15.1991 0.0000 -0.0000 -0.0000 -0.3086 10.0416 -6.0748 1.7009 -8.2131 -23.3633 0.0000 0.0000 0.0000 8.0821 5.6814 -45.2828 -2.2069 -9.2845 26.6893 0.0331 -11.0158 -15.1839 -0.5359 4.6905 -13.0279 -10.2957 -1.8548 9.4474 0.5310 -3.6090 -0.6972 6.8491 -1.4683 -5.3934 4.3944 0.3029 -19.5420 -5.1902 0.2357 16.9877 -2.4530 -0.1598 8.5198 -0.0000 -0.0000 0.0000 -83.7734 -15.8766 35.7445 28.7656 -39.8116 -10.6103 -0.0000 0.0000 -16.9452 19.7719 -5.3763 -1.9291 -7.1250 0.0000 -0.0000 -5.1516 24.2709 2.5887 -0.0000 -0.0000 0.0000 85.2180 -17.7919 -11.0051 -6.8694 11.7041 -0.7049 0.0000 0.0000 16.7687 -17.6449 -3.1501 1.0014 7.1250 -0.0000 -0.0000 7.2947 -33.2216 2.1205
-0.3997 17.6215 -11.2670 7.6580 7.8089 9.6474 0.0000 0.0000 0.0000 -27.8158 6.8172 16.2943 0.0000 0.0000 0.0000 -0.2978 9.6767 -4.6579 1.9316 -8.7222 -24.9300 0.0000 0.0000 0.0000 8.4387 5.8918 -44.5246 -2.2090 -9.2885 26.7021 -0.0585 -10.2295 -15.4634 -0.5690 4.8311 -13.4276 -10.0790 -1.9793 9.3922 0.6614 -3.7334 -0.6469 6.8754 -1.5427 -5.2877 4.4286 0.3392 -19.5907 -5.3643 0.3119 17.0280 -2.5095 -0.1410 8.5465 0.0000 0.0000 0.0000 -83.6041 -16.1980 35.8438 29.6610 -40.6011 -11.1884 -0.0000 0.0000 -17.0874 20.2131 -5.9719 -2.1937 -7.1250 0.0000 -0.0000 -4.8156 23.6232 2.4908 0.0000 0.0000 0.0000 85.3856 -18.2404 -12.8610 -6.6660 11.3683 -0.6642 0.0000 0.0000 18.2217 -17.6612 -3.0570 0.9728 7.1250 -0.0000 -0.0000 7.2722 -33.1253 2.1309
-0.4065 17.6208 -10.9686 7.3599 8.0879 9.3924 0.0000 0.0000 0.0000 -26.9868 7.0330 17.4016 0.0000 0.0000 0.0000 -0.2734 9.2311 -2.9734 2.1795 -9.2305 -26.5189 0.0000 0.0000 0.0000 8.9334 5.9923 -43.6647 -2.2561 -9.3804 26.9926 -0.1510 -9.2874 -15.6066 -0.6003 4.9597 -13.7936 -9.8423 -2.0688 9.3330 0.7944 -3.8090 -0.5954 6.8870 -1.5931 -5.1893 4.4342 0.3560 -19.5943 -5.5287 0.3684 17.0401 -2.5597 -0.1318 8.5547 -0.0000 0.0000 0.0000 -83.4736 -16.4370 35.9481 30.4704 -41.2932 -11.7188 -0.0000 0.0000 -17.2095 20.6867 -6.6521 -2.5046 -7.1250 0.0000 -0.0000 -4.4616 22.8797 2.3829 -0.0000 0.0000 0.0000 85.5644 -18.7033 -14.7000 -6.4885 11.0744 -0.6297 0.0000 0.0000 19.6028 -17.6812 -2.9969 0.9548 7.1250 -0.0000 -0.0000 7.2500 -33.0635 2.1353
